<svg width="944" height="174" viewBox="0 0 944 174" fill="none" xmlns="http://www.w3.org/2000/svg">
<rect width="176" height="174" fill="white"/>
<path d="M16 99L18.125 123.75L27.9375 127L37.8125 123.75L40 99H16ZM35.25 107H23.75L24 110.125H35L34.125 119.375L28 121.062H27.9375L21.75 119.375L21.375 114.625H24.375L24.625 117L27.9375 117.938L31.3125 117L31.6875 113.125H21.25L20.4375 104.062H35.5L35.25 107Z" fill="#2A7AE4"/>
<path d="M26.736 142.64V154H24.544V149.152H19.392V154H17.184V142.64H19.392V147.232H24.544V142.64H26.736ZM33.9219 153.568C33.6339 153.696 33.2819 153.824 32.8659 153.952C32.4499 154.08 32.0125 154.144 31.5539 154.144C31.2552 154.144 30.9725 154.107 30.7059 154.032C30.4499 153.957 30.2205 153.84 30.0179 153.68C29.8259 153.509 29.6712 153.296 29.5539 153.04C29.4365 152.773 29.3779 152.453 29.3779 152.08V147.264H28.2739V145.616H29.3779V142.896H31.5219V145.616H33.2819V147.264H31.5219V151.36C31.5219 151.659 31.5965 151.872 31.7459 152C31.9059 152.117 32.0979 152.176 32.3219 152.176C32.5459 152.176 32.7645 152.139 32.9779 152.064C33.1912 151.989 33.3619 151.925 33.4899 151.872L33.9219 153.568ZM48.0625 154H45.9185V149.296C45.9185 148.624 45.8012 148.133 45.5665 147.824C45.3425 147.515 45.0278 147.36 44.6225 147.36C44.1958 147.36 43.7958 147.525 43.4225 147.856C43.0492 148.176 42.7825 148.597 42.6225 149.12V154H40.4785V149.296C40.4785 148.624 40.3612 148.133 40.1265 147.824C39.9025 147.515 39.5878 147.36 39.1825 147.36C38.7665 147.36 38.3665 147.52 37.9825 147.84C37.6092 148.16 37.3425 148.581 37.1825 149.104V154H35.0385V145.616H36.9745V147.168C37.2838 146.624 37.7052 146.208 38.2385 145.92C38.7825 145.621 39.4012 145.472 40.0945 145.472C40.7985 145.472 41.3425 145.643 41.7265 145.984C42.1105 146.325 42.3558 146.747 42.4625 147.248C42.8038 146.672 43.2358 146.235 43.7585 145.936C44.2812 145.627 44.8785 145.472 45.5505 145.472C46.0625 145.472 46.4838 145.568 46.8145 145.76C47.1452 145.952 47.4012 146.203 47.5825 146.512C47.7638 146.821 47.8865 147.173 47.9505 147.568C48.0252 147.963 48.0625 148.363 48.0625 148.768V154ZM49.9131 142.32H52.0571V151.312C52.0571 151.621 52.1318 151.861 52.2811 152.032C52.4305 152.203 52.6438 152.288 52.9211 152.288C53.0491 152.288 53.1878 152.267 53.3371 152.224C53.4971 152.181 53.6465 152.128 53.7851 152.064L54.0731 153.696C53.7851 153.835 53.4491 153.941 53.0651 154.016C52.6811 154.091 52.3345 154.128 52.0251 154.128C51.3531 154.128 50.8305 153.952 50.4571 153.6C50.0945 153.237 49.9131 152.725 49.9131 152.064V142.32ZM62.015 148.896C62.5483 148.896 63.0443 148.987 63.503 149.168C63.9617 149.339 64.3563 149.584 64.687 149.904C65.0177 150.224 65.2737 150.608 65.455 151.056C65.647 151.504 65.743 152 65.743 152.544C65.743 153.12 65.6363 153.643 65.423 154.112C65.2203 154.581 64.9323 154.981 64.559 155.312C64.1857 155.653 63.743 155.915 63.231 156.096C62.719 156.288 62.1643 156.384 61.567 156.384C60.735 156.384 59.9883 156.208 59.327 155.856C58.6763 155.504 58.1803 155.024 57.839 154.416L59.071 153.136C59.3697 153.552 59.743 153.883 60.191 154.128C60.639 154.373 61.103 154.496 61.583 154.496C62.159 154.496 62.6283 154.325 62.991 153.984C63.3643 153.632 63.551 153.168 63.551 152.592C63.551 152.037 63.375 151.589 63.023 151.248C62.6817 150.907 62.2443 150.736 61.711 150.736C61.359 150.736 61.0283 150.816 60.719 150.976C60.4203 151.136 60.1803 151.355 59.999 151.632H58.127C58.127 151.6 58.1483 151.483 58.191 151.28C58.2337 151.067 58.287 150.8 58.351 150.48C58.415 150.149 58.4843 149.787 58.559 149.392C58.6337 148.987 58.7137 148.576 58.799 148.16C58.991 147.179 59.2043 146.08 59.439 144.864H65.039V146.816H60.991L60.527 149.36C60.655 149.221 60.8417 149.109 61.087 149.024C61.343 148.939 61.6523 148.896 62.015 148.896Z" fill="#464646"/>
<rect width="176" height="174" transform="translate(192)" fill="white"/>
<path d="M233 99H211C209.312 99 208 100.375 208 102V124C208 125.688 209.312 127 211 127H233C234.625 127 236 125.688 236 124V102C236 100.375 234.625 99 233 99ZM223.188 120.875C223.188 123.562 221.625 124.812 219.25 124.812C217.188 124.812 215.938 123.75 215.312 122.438L217.5 121.125C217.875 121.875 218.25 122.5 219.188 122.5C220 122.5 220.562 122.125 220.562 120.812V111.875H223.188V120.875ZM229.438 124.812C227 124.812 225.438 123.688 224.625 122.125L226.812 120.938C227.375 121.812 228.062 122.5 229.375 122.5C230.438 122.5 231.188 121.938 231.188 121.188C231.188 120.312 230.438 120 229.25 119.438L228.562 119.188C226.688 118.375 225.438 117.375 225.438 115.188C225.438 113.25 226.938 111.75 229.312 111.75C230.938 111.75 232.188 112.312 233 113.812L231 115.125C230.5 114.375 230.062 114 229.25 114C228.5 114 228 114.5 228 115.125C228 115.938 228.5 116.25 229.625 116.75L230.312 117.062C232.562 118 233.812 119 233.812 121.188C233.812 123.562 231.938 124.812 229.438 124.812Z" fill="#2A7AE4"/>
<path d="M208.608 151.68C208.757 151.787 209.008 151.904 209.36 152.032C209.712 152.16 210.117 152.224 210.576 152.224C211.024 152.224 211.381 152.149 211.648 152C211.915 151.84 212.117 151.6 212.256 151.28C212.395 150.96 212.485 150.565 212.528 150.096C212.571 149.616 212.592 149.056 212.592 148.416V142.64H214.8V148.416C214.8 149.28 214.752 150.069 214.656 150.784C214.571 151.488 214.379 152.091 214.08 152.592C213.792 153.093 213.371 153.483 212.816 153.76C212.261 154.037 211.515 154.176 210.576 154.176C209.616 154.176 208.795 153.941 208.112 153.472L208.608 151.68ZM219.014 154.16C218.609 154.16 218.23 154.096 217.878 153.968C217.526 153.829 217.222 153.643 216.966 153.408C216.71 153.163 216.507 152.88 216.358 152.56C216.219 152.24 216.15 151.888 216.15 151.504C216.15 151.109 216.235 150.747 216.406 150.416C216.587 150.075 216.833 149.787 217.142 149.552C217.462 149.317 217.841 149.136 218.278 149.008C218.715 148.869 219.195 148.8 219.718 148.8C220.091 148.8 220.454 148.832 220.806 148.896C221.169 148.96 221.489 149.051 221.766 149.168V148.688C221.766 148.133 221.606 147.707 221.286 147.408C220.977 147.109 220.513 146.96 219.894 146.96C219.446 146.96 219.009 147.04 218.582 147.2C218.155 147.36 217.718 147.595 217.27 147.904L216.614 146.544C217.691 145.829 218.854 145.472 220.102 145.472C221.307 145.472 222.241 145.771 222.902 146.368C223.574 146.955 223.91 147.808 223.91 148.928V151.536C223.91 151.76 223.947 151.92 224.022 152.016C224.107 152.112 224.241 152.165 224.422 152.176V154C224.059 154.075 223.745 154.112 223.478 154.112C223.073 154.112 222.758 154.021 222.534 153.84C222.321 153.659 222.187 153.419 222.134 153.12L222.086 152.656C221.713 153.147 221.259 153.52 220.726 153.776C220.193 154.032 219.622 154.16 219.014 154.16ZM219.622 152.592C219.985 152.592 220.326 152.528 220.646 152.4C220.977 152.272 221.233 152.101 221.414 151.888C221.649 151.707 221.766 151.504 221.766 151.28V150.32C221.51 150.224 221.233 150.149 220.934 150.096C220.635 150.032 220.347 150 220.07 150C219.515 150 219.062 150.128 218.71 150.384C218.358 150.629 218.182 150.944 218.182 151.328C218.182 151.691 218.321 151.995 218.598 152.24C218.875 152.475 219.217 152.592 219.622 152.592ZM227.951 154L224.863 145.616H227.071L229.199 152.256L231.343 145.616H233.359L230.271 154H227.951ZM236.561 154.16C236.156 154.16 235.777 154.096 235.425 153.968C235.073 153.829 234.769 153.643 234.513 153.408C234.257 153.163 234.054 152.88 233.905 152.56C233.766 152.24 233.697 151.888 233.697 151.504C233.697 151.109 233.782 150.747 233.953 150.416C234.134 150.075 234.38 149.787 234.689 149.552C235.009 149.317 235.388 149.136 235.825 149.008C236.262 148.869 236.742 148.8 237.265 148.8C237.638 148.8 238.001 148.832 238.353 148.896C238.716 148.96 239.036 149.051 239.313 149.168V148.688C239.313 148.133 239.153 147.707 238.833 147.408C238.524 147.109 238.06 146.96 237.441 146.96C236.993 146.96 236.556 147.04 236.129 147.2C235.702 147.36 235.265 147.595 234.817 147.904L234.161 146.544C235.238 145.829 236.401 145.472 237.649 145.472C238.854 145.472 239.788 145.771 240.449 146.368C241.121 146.955 241.457 147.808 241.457 148.928V151.536C241.457 151.76 241.494 151.92 241.569 152.016C241.654 152.112 241.788 152.165 241.969 152.176V154C241.606 154.075 241.292 154.112 241.025 154.112C240.62 154.112 240.305 154.021 240.081 153.84C239.868 153.659 239.734 153.419 239.681 153.12L239.633 152.656C239.26 153.147 238.806 153.52 238.273 153.776C237.74 154.032 237.169 154.16 236.561 154.16ZM237.169 152.592C237.532 152.592 237.873 152.528 238.193 152.4C238.524 152.272 238.78 152.101 238.961 151.888C239.196 151.707 239.313 151.504 239.313 151.28V150.32C239.057 150.224 238.78 150.149 238.481 150.096C238.182 150.032 237.894 150 237.617 150C237.062 150 236.609 150.128 236.257 150.384C235.905 150.629 235.729 150.944 235.729 151.328C235.729 151.691 235.868 151.995 236.145 152.24C236.422 152.475 236.764 152.592 237.169 152.592ZM246.628 154.16C245.924 154.16 245.236 154.048 244.564 153.824C243.892 153.6 243.316 153.28 242.836 152.864L243.636 151.52C244.148 151.883 244.644 152.16 245.124 152.352C245.615 152.533 246.1 152.624 246.58 152.624C247.007 152.624 247.343 152.544 247.588 152.384C247.834 152.224 247.956 151.995 247.956 151.696C247.956 151.397 247.812 151.179 247.524 151.04C247.236 150.901 246.767 150.741 246.116 150.56C245.572 150.411 245.108 150.267 244.724 150.128C244.34 149.989 244.031 149.835 243.796 149.664C243.562 149.483 243.391 149.28 243.284 149.056C243.178 148.821 243.124 148.544 243.124 148.224C243.124 147.797 243.204 147.413 243.364 147.072C243.535 146.731 243.77 146.443 244.068 146.208C244.367 145.963 244.714 145.776 245.108 145.648C245.514 145.52 245.951 145.456 246.42 145.456C247.05 145.456 247.636 145.547 248.18 145.728C248.735 145.909 249.242 146.203 249.7 146.608L248.836 147.904C248.41 147.584 247.994 147.349 247.588 147.2C247.194 147.051 246.799 146.976 246.404 146.976C246.042 146.976 245.738 147.051 245.492 147.2C245.247 147.349 245.124 147.589 245.124 147.92C245.124 148.069 245.151 148.192 245.204 148.288C245.268 148.384 245.364 148.469 245.492 148.544C245.62 148.619 245.786 148.693 245.988 148.768C246.202 148.832 246.463 148.901 246.772 148.976C247.348 149.125 247.839 149.275 248.244 149.424C248.66 149.573 248.996 149.744 249.252 149.936C249.519 150.128 249.711 150.352 249.828 150.608C249.956 150.853 250.02 151.152 250.02 151.504C250.02 152.325 249.716 152.976 249.108 153.456C248.5 153.925 247.674 154.16 246.628 154.16ZM250.886 149.808C250.886 149.221 250.987 148.667 251.19 148.144C251.392 147.621 251.686 147.163 252.07 146.768C252.454 146.373 252.918 146.059 253.462 145.824C254.006 145.589 254.619 145.472 255.302 145.472C256.219 145.472 256.998 145.669 257.638 146.064C258.288 146.459 258.774 146.976 259.094 147.616L256.998 148.256C256.816 147.947 256.576 147.712 256.278 147.552C255.979 147.381 255.648 147.296 255.286 147.296C254.976 147.296 254.688 147.36 254.422 147.488C254.155 147.605 253.92 147.776 253.718 148C253.526 148.213 253.371 148.475 253.254 148.784C253.147 149.093 253.094 149.435 253.094 149.808C253.094 150.181 253.152 150.523 253.27 150.832C253.387 151.141 253.542 151.408 253.734 151.632C253.936 151.856 254.171 152.032 254.438 152.16C254.704 152.277 254.987 152.336 255.286 152.336C255.67 152.336 256.022 152.24 256.342 152.048C256.672 151.856 256.902 151.621 257.03 151.344L259.126 151.984C258.838 152.624 258.363 153.147 257.702 153.552C257.04 153.957 256.246 154.16 255.318 154.16C254.635 154.16 254.022 154.043 253.478 153.808C252.934 153.573 252.47 153.259 252.086 152.864C251.702 152.459 251.403 151.995 251.19 151.472C250.987 150.939 250.886 150.384 250.886 149.808ZM265.437 147.472C264.786 147.483 264.205 147.611 263.693 147.856C263.181 148.091 262.813 148.448 262.589 148.928V154H260.445V145.616H262.413V147.408C262.562 147.12 262.738 146.864 262.941 146.64C263.143 146.405 263.362 146.203 263.597 146.032C263.831 145.861 264.066 145.733 264.301 145.648C264.546 145.552 264.781 145.504 265.005 145.504C265.122 145.504 265.207 145.504 265.261 145.504C265.325 145.504 265.383 145.509 265.437 145.52V147.472ZM266.632 154V145.616H268.776V154H266.632ZM266.632 144.448V142.32H268.776V144.448H266.632ZM275.734 154.16C275.073 154.16 274.497 154.016 274.006 153.728C273.516 153.429 273.132 153.029 272.854 152.528V157.408H270.71V145.616H272.582V147.056C272.892 146.565 273.292 146.181 273.782 145.904C274.273 145.616 274.838 145.472 275.478 145.472C276.044 145.472 276.566 145.589 277.046 145.824C277.526 146.048 277.937 146.357 278.278 146.752C278.63 147.136 278.902 147.595 279.094 148.128C279.297 148.651 279.398 149.205 279.398 149.792C279.398 150.4 279.308 150.971 279.126 151.504C278.945 152.037 278.689 152.501 278.358 152.896C278.038 153.291 277.654 153.6 277.206 153.824C276.758 154.048 276.268 154.16 275.734 154.16ZM275.014 152.336C275.334 152.336 275.628 152.267 275.894 152.128C276.172 151.989 276.406 151.803 276.598 151.568C276.79 151.333 276.94 151.061 277.046 150.752C277.153 150.443 277.206 150.123 277.206 149.792C277.206 149.44 277.148 149.115 277.03 148.816C276.913 148.507 276.748 148.24 276.534 148.016C276.332 147.792 276.086 147.616 275.798 147.488C275.521 147.36 275.217 147.296 274.886 147.296C274.684 147.296 274.476 147.333 274.262 147.408C274.049 147.472 273.852 147.568 273.67 147.696C273.489 147.824 273.324 147.973 273.174 148.144C273.036 148.315 272.929 148.501 272.854 148.704V150.672C273.046 151.152 273.34 151.552 273.734 151.872C274.129 152.181 274.556 152.336 275.014 152.336ZM285.766 153.568C285.478 153.696 285.126 153.824 284.71 153.952C284.294 154.08 283.856 154.144 283.398 154.144C283.099 154.144 282.816 154.107 282.55 154.032C282.294 153.957 282.064 153.84 281.862 153.68C281.67 153.509 281.515 153.296 281.398 153.04C281.28 152.773 281.222 152.453 281.222 152.08V147.264H280.118V145.616H281.222V142.896H283.366V145.616H285.126V147.264H283.366V151.36C283.366 151.659 283.44 151.872 283.59 152C283.75 152.117 283.942 152.176 284.166 152.176C284.39 152.176 284.608 152.139 284.822 152.064C285.035 151.989 285.206 151.925 285.334 151.872L285.766 153.568Z" fill="#464646"/>
<rect width="176" height="174" transform="translate(384)" fill="white"/>
<path d="M419.75 125.25C419.875 125.25 420 125.25 420.125 125.188L423.75 123.062C423.938 122.938 424.125 122.688 424.125 122.438V118.25C424.125 118 423.938 117.75 423.75 117.625L420.125 115.5C419.875 115.375 419.562 115.375 419.375 115.5L415.75 117.625C415.5 117.75 415.375 118 415.375 118.25V122.438C415.375 122.688 415.5 122.938 415.75 123.062L416.688 123.625C417.125 123.875 417.312 123.875 417.5 123.875C418.188 123.875 418.625 123.438 418.625 122.75V118.625C418.625 118.562 418.562 118.5 418.5 118.5H418.062C418 118.5 417.938 118.562 417.938 118.625V122.75C417.938 123.062 417.625 123.375 417.062 123.062L416.062 122.5L416 122.438V118.25L416.062 118.188L419.688 116.062C419.75 116.062 419.75 116.062 419.812 116.062L423.438 118.188C423.438 118.188 423.438 118.188 423.438 118.25V122.438C423.438 122.5 423.438 122.5 423.438 122.5L419.812 124.625C419.75 124.625 419.688 124.625 419.688 124.625L418.75 124.062H418.688C418.438 124.188 418.375 124.25 418.125 124.312C418.062 124.312 418 124.375 418.188 124.438L419.375 125.188C419.5 125.25 419.625 125.25 419.75 125.25ZM422.688 121.188C422.688 120.375 422.125 120.188 421 120C419.875 119.875 419.812 119.812 419.812 119.562C419.812 119.312 419.875 119.062 420.688 119.062C421.438 119.062 421.75 119.188 421.812 119.688C421.875 119.75 421.875 119.75 421.938 119.75H422.438C422.438 119.75 422.438 119.75 422.5 119.75V119.688C422.438 118.812 421.875 118.375 420.688 118.375C419.688 118.375 419.062 118.812 419.062 119.562C419.062 120.375 419.688 120.562 420.688 120.688C421.875 120.812 421.938 120.938 421.938 121.188C421.938 121.625 421.625 121.75 420.875 121.75C419.875 121.75 419.688 121.5 419.625 121.062C419.625 121 419.562 120.938 419.5 120.938H419.062C419 120.938 418.938 121 418.938 121.062C418.938 121.688 419.25 122.375 420.875 122.375C422 122.375 422.688 121.938 422.688 121.188ZM426.062 118.062C426.062 117.625 425.75 117.312 425.375 117.312C425 117.312 424.688 117.625 424.688 118.062C424.688 118.438 425 118.75 425.375 118.75C425.75 118.75 426.062 118.438 426.062 118.062ZM425.938 118.062C425.938 118.375 425.688 118.625 425.375 118.625C425.062 118.625 424.812 118.375 424.812 118.062C424.812 117.688 425.062 117.438 425.375 117.438C425.688 117.438 425.938 117.688 425.938 118.062ZM425.688 118.438C425.625 118.375 425.625 118.25 425.625 118.188C425.625 118.125 425.625 118.062 425.5 118.062C425.562 118 425.625 118 425.625 117.875C425.625 117.625 425.5 117.625 425.375 117.625H425.125V118.438H425.25V118.125H425.375C425.438 118.125 425.438 118.125 425.5 118.188C425.5 118.188 425.5 118.375 425.5 118.438H425.688ZM425.5 117.875C425.5 117.938 425.5 118 425.375 118H425.25V117.75H425.375C425.438 117.75 425.5 117.75 425.5 117.875ZM408.562 108.938C408.562 108.812 408.438 108.625 408.312 108.562L404.5 106.375C404.438 106.312 404.375 106.312 404.25 106.312C404.188 106.312 404.125 106.312 404 106.375L400.188 108.562C400.062 108.625 400 108.812 400 108.938V114.875C400 115 400 115.062 400.062 115.125C400.188 115.125 400.25 115.125 400.312 115.125L402.625 113.812C402.75 113.688 402.812 113.562 402.812 113.375V110.625C402.812 110.438 402.938 110.312 403.062 110.25L404 109.688C404.125 109.625 404.188 109.625 404.25 109.625C404.312 109.625 404.438 109.625 404.5 109.688L405.438 110.25C405.625 110.312 405.688 110.438 405.688 110.625V113.375C405.688 113.562 405.75 113.688 405.938 113.812L408.188 115.125C408.25 115.125 408.375 115.125 408.438 115.125C408.5 115.062 408.562 115 408.562 114.875V108.938ZM429.5 102.5C429.5 102.312 429.438 102.188 429.25 102.062L427 100.812C426.812 100.75 426.625 100.812 426.625 101V106.875C426.625 107 426.5 107.062 426.375 107L425.438 106.5C425.312 106.375 425.125 106.375 425 106.5L421.125 108.688C421 108.75 420.938 108.938 420.938 109.062V113.5C420.938 113.688 421 113.812 421.125 113.938L425 116.125C425.125 116.188 425.312 116.188 425.438 116.125L429.25 113.938C429.438 113.812 429.5 113.688 429.5 113.5V102.5ZM426.625 110.562V112.062C426.625 112.125 426.625 112.125 426.562 112.188L425.25 112.938C425.25 112.938 425.188 112.938 425.125 112.938L423.812 112.188C423.812 112.125 423.75 112.125 423.75 112.062V110.562C423.75 110.5 423.812 110.438 423.812 110.438L425.125 109.688C425.188 109.688 425.25 109.688 425.25 109.688L426.562 110.438C426.625 110.438 426.625 110.5 426.625 110.562ZM439.75 110.5C439.875 110.438 440 110.25 440 110.125V109C440 108.875 439.875 108.688 439.75 108.625L435.938 106.438C435.812 106.312 435.625 106.312 435.5 106.438L431.625 108.625C431.5 108.688 431.438 108.875 431.438 109V113.438C431.438 113.625 431.5 113.75 431.625 113.875L435.438 116C435.562 116.125 435.75 116.125 435.875 116L438.188 114.75C438.375 114.625 438.375 114.438 438.188 114.312L434.375 112.125C434.25 112.062 434.25 112 434.25 111.938V110.562C434.25 110.438 434.25 110.375 434.375 110.312L435.562 109.625C435.625 109.625 435.688 109.625 435.75 109.625L437 110.312C437.062 110.375 437.125 110.438 437.125 110.562V111.625C437.125 111.812 437.312 111.938 437.438 111.812L439.75 110.5ZM434.938 110.688C434.875 110.75 434.875 110.75 434.875 110.812V111.625C434.875 111.688 434.875 111.688 434.938 111.688L435.625 112.125C435.688 112.188 435.688 112.188 435.75 112.125L436.5 111.688C436.5 111.688 436.5 111.688 436.5 111.625V110.812C436.5 110.75 436.5 110.75 436.5 110.688L435.75 110.312C435.688 110.25 435.688 110.25 435.625 110.312L434.938 110.688ZM419 113.438V109.062C419 108.875 418.938 108.688 418.75 108.625L414.938 106.438C414.812 106.375 414.625 106.375 414.5 106.438L410.688 108.625C410.562 108.688 410.438 108.875 410.438 109.062V113.438C410.438 113.625 410.562 113.75 410.688 113.812L414.5 116.062C414.688 116.125 414.812 116.125 415 116.062L418.812 113.812C418.875 113.75 419 113.688 419 113.562C419 113.5 419 113.5 419 113.438ZM414.375 105.625V105.688H414.312L414.375 105.625Z" fill="#2A7AE4"/>
<path d="M403.392 146.704V154H401.184V142.64H402.944L408.816 150.128V142.656H411.024V154H409.184L403.392 146.704ZM416.911 154.16C416.228 154.16 415.615 154.048 415.071 153.824C414.527 153.589 414.063 153.269 413.679 152.864C413.305 152.459 413.017 151.995 412.815 151.472C412.612 150.949 412.511 150.4 412.511 149.824C412.511 149.237 412.612 148.683 412.815 148.16C413.017 147.637 413.305 147.173 413.679 146.768C414.063 146.363 414.527 146.048 415.071 145.824C415.615 145.589 416.228 145.472 416.911 145.472C417.593 145.472 418.201 145.589 418.735 145.824C419.279 146.048 419.743 146.363 420.127 146.768C420.511 147.173 420.799 147.637 420.991 148.16C421.193 148.683 421.295 149.237 421.295 149.824C421.295 150.4 421.193 150.949 420.991 151.472C420.799 151.995 420.511 152.459 420.127 152.864C419.753 153.269 419.295 153.589 418.751 153.824C418.207 154.048 417.593 154.16 416.911 154.16ZM414.719 149.824C414.719 150.315 414.815 150.752 415.007 151.136C415.199 151.509 415.46 151.803 415.791 152.016C416.121 152.229 416.495 152.336 416.911 152.336C417.316 152.336 417.684 152.229 418.015 152.016C418.345 151.792 418.607 151.493 418.799 151.12C419.001 150.736 419.103 150.299 419.103 149.808C419.103 149.328 419.001 148.896 418.799 148.512C418.607 148.128 418.345 147.829 418.015 147.616C417.684 147.403 417.316 147.296 416.911 147.296C416.495 147.296 416.121 147.408 415.791 147.632C415.46 147.845 415.199 148.144 415.007 148.528C414.815 148.901 414.719 149.333 414.719 149.824ZM422.23 149.808C422.23 148.997 422.39 148.267 422.71 147.616C423.03 146.955 423.472 146.432 424.038 146.048C424.603 145.664 425.248 145.472 425.974 145.472C426.592 145.472 427.147 145.627 427.638 145.936C428.139 146.235 428.528 146.619 428.806 147.088V142.32H430.95V151.6C430.95 151.824 430.987 151.984 431.062 152.08C431.136 152.176 431.264 152.235 431.446 152.256V154C431.072 154.075 430.768 154.112 430.534 154.112C430.15 154.112 429.83 154.016 429.574 153.824C429.328 153.632 429.19 153.381 429.158 153.072L429.126 152.544C428.816 153.067 428.395 153.467 427.862 153.744C427.339 154.021 426.79 154.16 426.214 154.16C425.638 154.16 425.104 154.048 424.614 153.824C424.134 153.6 423.712 153.291 423.35 152.896C422.998 152.501 422.72 152.043 422.518 151.52C422.326 150.987 422.23 150.416 422.23 149.808ZM428.806 150.928V148.928C428.699 148.619 428.528 148.341 428.294 148.096C428.059 147.851 427.798 147.659 427.51 147.52C427.222 147.371 426.934 147.296 426.646 147.296C426.315 147.296 426.016 147.365 425.75 147.504C425.483 147.643 425.248 147.829 425.046 148.064C424.854 148.299 424.704 148.571 424.598 148.88C424.502 149.189 424.454 149.515 424.454 149.856C424.454 150.197 424.507 150.523 424.614 150.832C424.731 151.131 424.896 151.392 425.11 151.616C425.323 151.84 425.568 152.016 425.846 152.144C426.134 152.272 426.443 152.336 426.774 152.336C426.976 152.336 427.179 152.304 427.382 152.24C427.595 152.165 427.792 152.069 427.974 151.952C428.166 151.824 428.331 151.675 428.47 151.504C428.619 151.323 428.731 151.131 428.806 150.928ZM436.942 154.16C436.27 154.16 435.662 154.048 435.118 153.824C434.574 153.589 434.11 153.275 433.726 152.88C433.342 152.475 433.043 152.016 432.83 151.504C432.627 150.981 432.526 150.432 432.526 149.856C432.526 149.056 432.702 148.325 433.054 147.664C433.417 147.003 433.929 146.475 434.59 146.08C435.262 145.675 436.051 145.472 436.958 145.472C437.875 145.472 438.659 145.675 439.31 146.08C439.961 146.475 440.457 147.003 440.798 147.664C441.15 148.315 441.326 149.019 441.326 149.776C441.326 149.904 441.321 150.037 441.31 150.176C441.299 150.304 441.289 150.411 441.278 150.496H434.798C434.841 150.923 434.963 151.296 435.166 151.616C435.379 151.936 435.646 152.181 435.966 152.352C436.297 152.512 436.649 152.592 437.022 152.592C437.449 152.592 437.849 152.491 438.222 152.288C438.606 152.075 438.867 151.797 439.006 151.456L440.846 151.968C440.643 152.395 440.35 152.773 439.966 153.104C439.593 153.435 439.15 153.696 438.638 153.888C438.126 154.069 437.561 154.16 436.942 154.16ZM434.75 149.136H439.134C439.091 148.709 438.969 148.341 438.766 148.032C438.574 147.712 438.318 147.467 437.998 147.296C437.678 147.115 437.321 147.024 436.926 147.024C436.542 147.024 436.19 147.115 435.87 147.296C435.561 147.467 435.305 147.712 435.102 148.032C434.91 148.341 434.793 148.709 434.75 149.136ZM445.671 151.68C445.809 151.776 446.055 151.893 446.407 152.032C446.759 152.16 447.175 152.224 447.655 152.224C448.071 152.224 448.412 152.155 448.679 152.016C448.945 151.867 449.148 151.648 449.286 151.36C449.436 151.072 449.532 150.699 449.575 150.24C449.628 149.781 449.655 149.232 449.655 148.592V142.64H451.863V148.416C451.863 149.269 451.815 150.048 451.719 150.752C451.623 151.456 451.436 152.064 451.159 152.576C450.881 153.088 450.46 153.483 449.895 153.76C449.34 154.037 448.599 154.176 447.671 154.176C447.159 154.176 446.7 154.117 446.295 154C445.889 153.883 445.516 153.707 445.175 153.472L445.671 151.68ZM460.874 145.616C460.799 145.541 460.661 145.44 460.458 145.312C460.266 145.184 460.026 145.061 459.738 144.944C459.461 144.827 459.157 144.725 458.826 144.64C458.495 144.544 458.159 144.496 457.818 144.496C457.221 144.496 456.767 144.608 456.458 144.832C456.159 145.056 456.01 145.371 456.01 145.776C456.01 146.085 456.106 146.331 456.298 146.512C456.49 146.693 456.778 146.848 457.162 146.976C457.546 147.104 458.026 147.243 458.602 147.392C459.349 147.573 459.994 147.797 460.538 148.064C461.093 148.32 461.514 148.661 461.802 149.088C462.101 149.504 462.25 150.059 462.25 150.752C462.25 151.36 462.138 151.883 461.914 152.32C461.69 152.747 461.381 153.093 460.986 153.36C460.591 153.627 460.143 153.824 459.642 153.952C459.141 154.069 458.607 154.128 458.042 154.128C457.477 154.128 456.911 154.069 456.346 153.952C455.781 153.835 455.237 153.669 454.714 153.456C454.191 153.232 453.711 152.965 453.274 152.656L454.25 150.752C454.346 150.848 454.517 150.976 454.762 151.136C455.007 151.285 455.306 151.44 455.658 151.6C456.01 151.749 456.394 151.877 456.81 151.984C457.226 152.091 457.647 152.144 458.074 152.144C458.671 152.144 459.125 152.043 459.434 151.84C459.743 151.637 459.898 151.349 459.898 150.976C459.898 150.635 459.775 150.368 459.53 150.176C459.285 149.984 458.943 149.819 458.506 149.68C458.069 149.531 457.551 149.371 456.954 149.2C456.239 148.997 455.642 148.773 455.162 148.528C454.682 148.272 454.325 147.952 454.09 147.568C453.855 147.184 453.738 146.704 453.738 146.128C453.738 145.349 453.919 144.699 454.282 144.176C454.655 143.643 455.157 143.243 455.786 142.976C456.415 142.699 457.114 142.56 457.882 142.56C458.415 142.56 458.917 142.619 459.386 142.736C459.866 142.853 460.314 143.008 460.73 143.2C461.146 143.392 461.519 143.6 461.85 143.824L460.874 145.616Z" fill="#464646"/>
<rect width="176" height="174" transform="translate(576)" fill="white"/>
<path d="M618.125 108.125C617.75 108 617.438 107.875 617.125 107.812C617.125 107.562 617.188 107.312 617.25 107.062C618 103.375 617.5 100.375 615.812 99.375C614.188 98.4375 611.5 99.4375 608.75 101.812C608.5 102 608.25 102.25 608 102.5C607.812 102.312 607.625 102.188 607.5 102C604.625 99.5 601.75 98.4375 600.062 99.4375C598.438 100.375 597.938 103.188 598.625 106.75C598.688 107.062 598.75 107.438 598.875 107.75C598.438 107.875 598.062 108 597.688 108.125C594.375 109.312 592 111.125 592 113C592 114.938 594.5 116.938 598 118.125C598.25 118.188 598.562 118.312 598.812 118.375C598.75 118.75 598.688 119.125 598.562 119.5C597.938 122.938 598.438 125.688 600.062 126.625C601.75 127.625 604.625 126.625 607.375 124.188C607.562 124 607.812 123.812 608 123.625C608.312 123.875 608.562 124.125 608.875 124.375C611.562 126.688 614.188 127.625 615.812 126.688C617.5 125.688 618.062 122.75 617.375 119.125C617.312 118.875 617.25 118.562 617.188 118.312C617.375 118.25 617.562 118.188 617.75 118.125C621.375 116.938 624 115 624 113C624 111.125 621.5 109.25 618.125 108.125ZM609.625 102.812C612 100.75 614.125 100 615.125 100.562C616.188 101.125 616.625 103.625 615.938 106.812C615.875 107.062 615.875 107.25 615.812 107.438C614.375 107.125 613 106.938 611.562 106.812C610.75 105.625 609.875 104.5 608.938 103.438C609.188 103.25 609.375 103 609.625 102.812ZM602.438 116.25C602.75 116.812 603.062 117.312 603.438 117.875C602.438 117.75 601.438 117.625 600.5 117.375C600.812 116.5 601.125 115.562 601.5 114.625C601.812 115.188 602.125 115.688 602.438 116.25ZM600.5 108.75C601.438 108.5 602.375 108.375 603.375 108.25C603.062 108.75 602.75 109.312 602.438 109.812C602.125 110.375 601.812 110.875 601.5 111.438C601.125 110.5 600.812 109.625 600.5 108.75ZM602.25 113.062C602.625 112.188 603.125 111.312 603.562 110.5C604.062 109.688 604.562 108.875 605.125 108.062C606.062 108 607 107.938 608 107.938C608.938 107.938 609.938 108 610.812 108.062C611.375 108.875 611.875 109.688 612.375 110.5C612.812 111.312 613.312 112.125 613.688 113C613.312 113.875 612.875 114.75 612.375 115.562C611.875 116.375 611.375 117.188 610.875 118C609.938 118.062 608.938 118.125 608 118.125C607 118.125 606.062 118.062 605.125 118C604.562 117.188 604.062 116.375 603.562 115.562C603.125 114.75 602.688 113.875 602.25 113.062ZM613.5 116.25C613.875 115.688 614.125 115.125 614.438 114.562C614.812 115.5 615.188 116.375 615.5 117.312C614.5 117.562 613.562 117.75 612.562 117.812C612.875 117.312 613.188 116.75 613.5 116.25ZM614.438 111.438C614.125 110.875 613.812 110.375 613.5 109.812C613.188 109.312 612.875 108.75 612.562 108.25C613.562 108.375 614.562 108.562 615.438 108.75C615.125 109.688 614.812 110.562 614.438 111.438ZM608 104.438C608.625 105.125 609.25 105.875 609.812 106.688C608.625 106.625 607.375 106.625 606.125 106.688C606.75 105.875 607.375 105.125 608 104.438ZM600.75 100.562C601.812 100 604.125 100.875 606.562 103C606.75 103.188 606.875 103.312 607.062 103.438C606.062 104.5 605.188 105.625 604.375 106.812C602.938 106.938 601.562 107.125 600.188 107.438C600.062 107.125 600 106.812 599.938 106.438C599.375 103.438 599.75 101.188 600.75 100.562ZM599.188 117.062C598.938 117 598.688 116.938 598.438 116.812C597.125 116.375 595.562 115.75 594.5 114.875C593.875 114.438 593.438 113.75 593.312 113C593.312 111.875 595.312 110.375 598.125 109.375C598.5 109.25 598.875 109.188 599.25 109.062C599.625 110.438 600.188 111.75 600.75 113.062C600.125 114.312 599.625 115.688 599.188 117.062ZM606.5 123.188C605.438 124.125 604.25 124.875 602.938 125.375C602.25 125.75 601.5 125.75 600.75 125.5C599.75 124.875 599.375 122.688 599.938 119.75C600 119.375 600.062 119 600.125 118.688C601.562 119 602.938 119.188 604.375 119.312C605.188 120.438 606.125 121.562 607.062 122.625C606.875 122.812 606.688 123 606.5 123.188ZM608 121.688C607.375 121 606.75 120.25 606.125 119.375C606.75 119.438 607.375 119.438 608 119.438C608.625 119.438 609.25 119.438 609.875 119.375C609.312 120.188 608.688 120.938 608 121.688ZM616.188 123.562C616.125 124.312 615.75 125 615.188 125.5C614.188 126.062 612.062 125.312 609.75 123.375C609.5 123.125 609.25 122.875 608.938 122.625C609.938 121.562 610.812 120.5 611.625 119.312C613.062 119.188 614.438 118.938 615.875 118.625C615.938 118.875 616 119.125 616.062 119.375C616.312 120.75 616.375 122.188 616.188 123.562ZM617.312 116.812C617.125 116.875 617 116.938 616.812 117C616.375 115.625 615.812 114.312 615.188 113C615.812 111.75 616.312 110.438 616.75 109.062C617.062 109.188 617.375 109.25 617.688 109.375C620.562 110.375 622.625 111.875 622.625 113C622.625 114.188 620.438 115.812 617.312 116.812ZM608 115.875C609.562 115.875 610.812 114.625 610.812 113C610.812 111.438 609.562 110.188 608 110.188C606.375 110.188 605.125 111.438 605.125 113C605.125 114.625 606.375 115.875 608 115.875Z" fill="#2A7AE4"/>
<path d="M593.184 154V142.64H598.208C598.731 142.64 599.211 142.752 599.648 142.976C600.096 143.189 600.48 143.477 600.8 143.84C601.12 144.192 601.371 144.597 601.552 145.056C601.733 145.504 601.824 145.957 601.824 146.416C601.824 147.152 601.637 147.824 601.264 148.432C600.901 149.029 600.405 149.461 599.776 149.728L602.368 154H599.888L597.568 150.192H595.392V154H593.184ZM595.392 148.256H598.16C598.363 148.256 598.549 148.208 598.72 148.112C598.901 148.016 599.056 147.888 599.184 147.728C599.312 147.557 599.413 147.36 599.488 147.136C599.563 146.912 599.6 146.672 599.6 146.416C599.6 146.149 599.557 145.904 599.472 145.68C599.387 145.456 599.269 145.264 599.12 145.104C598.981 144.933 598.816 144.805 598.624 144.72C598.443 144.624 598.256 144.576 598.064 144.576H595.392V148.256ZM607.27 154.16C606.598 154.16 605.99 154.048 605.446 153.824C604.902 153.589 604.438 153.275 604.054 152.88C603.67 152.485 603.372 152.027 603.158 151.504C602.956 150.981 602.854 150.432 602.854 149.856C602.854 149.259 602.956 148.699 603.158 148.176C603.361 147.643 603.654 147.179 604.038 146.784C604.422 146.379 604.886 146.059 605.43 145.824C605.985 145.589 606.604 145.472 607.286 145.472C607.969 145.472 608.577 145.589 609.11 145.824C609.654 146.059 610.113 146.373 610.486 146.768C610.87 147.163 611.158 147.621 611.35 148.144C611.553 148.667 611.654 149.211 611.654 149.776C611.654 149.915 611.649 150.048 611.638 150.176C611.638 150.304 611.628 150.411 611.606 150.496H605.126C605.158 150.827 605.238 151.12 605.366 151.376C605.494 151.632 605.66 151.851 605.862 152.032C606.065 152.213 606.294 152.352 606.55 152.448C606.806 152.544 607.073 152.592 607.35 152.592C607.777 152.592 608.177 152.491 608.55 152.288C608.934 152.075 609.196 151.797 609.334 151.456L611.174 151.968C610.865 152.608 610.369 153.136 609.686 153.552C609.014 153.957 608.209 154.16 607.27 154.16ZM609.446 149.104C609.393 148.475 609.158 147.973 608.742 147.6C608.337 147.216 607.841 147.024 607.254 147.024C606.966 147.024 606.694 147.077 606.438 147.184C606.193 147.28 605.974 147.419 605.782 147.6C605.59 147.781 605.43 148 605.302 148.256C605.185 148.512 605.116 148.795 605.094 149.104H609.446ZM615.248 154.16C614.843 154.16 614.464 154.096 614.112 153.968C613.76 153.829 613.456 153.643 613.2 153.408C612.944 153.163 612.742 152.88 612.592 152.56C612.454 152.24 612.384 151.888 612.384 151.504C612.384 151.109 612.47 150.747 612.64 150.416C612.822 150.075 613.067 149.787 613.376 149.552C613.696 149.317 614.075 149.136 614.512 149.008C614.95 148.869 615.43 148.8 615.952 148.8C616.326 148.8 616.688 148.832 617.04 148.896C617.403 148.96 617.723 149.051 618 149.168V148.688C618 148.133 617.84 147.707 617.52 147.408C617.211 147.109 616.747 146.96 616.128 146.96C615.68 146.96 615.243 147.04 614.816 147.2C614.39 147.36 613.952 147.595 613.504 147.904L612.848 146.544C613.926 145.829 615.088 145.472 616.336 145.472C617.542 145.472 618.475 145.771 619.136 146.368C619.808 146.955 620.144 147.808 620.144 148.928V151.536C620.144 151.76 620.182 151.92 620.256 152.016C620.342 152.112 620.475 152.165 620.656 152.176V154C620.294 154.075 619.979 154.112 619.712 154.112C619.307 154.112 618.992 154.021 618.768 153.84C618.555 153.659 618.422 153.419 618.368 153.12L618.32 152.656C617.947 153.147 617.494 153.52 616.96 153.776C616.427 154.032 615.856 154.16 615.248 154.16ZM615.856 152.592C616.219 152.592 616.56 152.528 616.88 152.4C617.211 152.272 617.467 152.101 617.648 151.888C617.883 151.707 618 151.504 618 151.28V150.32C617.744 150.224 617.467 150.149 617.168 150.096C616.87 150.032 616.582 150 616.304 150C615.75 150 615.296 150.128 614.944 150.384C614.592 150.629 614.416 150.944 614.416 151.328C614.416 151.691 614.555 151.995 614.832 152.24C615.11 152.475 615.451 152.592 615.856 152.592ZM621.62 149.808C621.62 149.221 621.721 148.667 621.924 148.144C622.127 147.621 622.42 147.163 622.804 146.768C623.188 146.373 623.652 146.059 624.196 145.824C624.74 145.589 625.353 145.472 626.036 145.472C626.953 145.472 627.732 145.669 628.372 146.064C629.023 146.459 629.508 146.976 629.828 147.616L627.732 148.256C627.551 147.947 627.311 147.712 627.012 147.552C626.713 147.381 626.383 147.296 626.02 147.296C625.711 147.296 625.423 147.36 625.156 147.488C624.889 147.605 624.655 147.776 624.452 148C624.26 148.213 624.105 148.475 623.988 148.784C623.881 149.093 623.828 149.435 623.828 149.808C623.828 150.181 623.887 150.523 624.004 150.832C624.121 151.141 624.276 151.408 624.468 151.632C624.671 151.856 624.905 152.032 625.172 152.16C625.439 152.277 625.721 152.336 626.02 152.336C626.404 152.336 626.756 152.24 627.076 152.048C627.407 151.856 627.636 151.621 627.764 151.344L629.86 151.984C629.572 152.624 629.097 153.147 628.436 153.552C627.775 153.957 626.98 154.16 626.052 154.16C625.369 154.16 624.756 154.043 624.212 153.808C623.668 153.573 623.204 153.259 622.82 152.864C622.436 152.459 622.137 151.995 621.924 151.472C621.721 150.939 621.62 150.384 621.62 149.808ZM636.203 153.568C635.915 153.696 635.563 153.824 635.147 153.952C634.731 154.08 634.294 154.144 633.835 154.144C633.536 154.144 633.254 154.107 632.987 154.032C632.731 153.957 632.502 153.84 632.299 153.68C632.107 153.509 631.952 153.296 631.835 153.04C631.718 152.773 631.659 152.453 631.659 152.08V147.264H630.555V145.616H631.659V142.896H633.803V145.616H635.563V147.264H633.803V151.36C633.803 151.659 633.878 151.872 634.027 152C634.187 152.117 634.379 152.176 634.603 152.176C634.827 152.176 635.046 152.139 635.259 152.064C635.472 151.989 635.643 151.925 635.771 151.872L636.203 153.568Z" fill="#464646"/>
<rect width="176" height="174" transform="translate(768)" fill="white"/>
<g clip-path="url(#clip0_160_124)">
<path d="M799.301 99.3151H788.105C786.47 99.3151 785.139 100.645 785.139 102.277V113.231H784.849C784.189 113.231 783.653 113.765 783.653 114.424V121.663C783.653 122.323 784.189 122.857 784.849 122.857H785.139V124.184C785.139 125.818 786.47 127.146 788.105 127.146H803.381C805.015 127.146 806.347 125.818 806.347 124.184V106.326L799.301 99.3151ZM789.363 119.819C789.706 119.819 790.086 119.745 790.311 119.655L790.482 120.541C790.273 120.646 789.803 120.758 789.192 120.758C787.453 120.758 786.558 119.678 786.558 118.248C786.558 116.535 787.782 115.582 789.303 115.582C789.893 115.582 790.34 115.701 790.542 115.804L790.311 116.706C790.079 116.609 789.759 116.52 789.356 116.52C788.453 116.52 787.752 117.064 787.752 118.181C787.752 119.186 788.348 119.819 789.363 119.819ZM803.381 125.332H788.105C787.472 125.332 786.956 124.817 786.956 124.184V122.857H801.196C801.856 122.857 802.392 122.323 802.392 121.663V114.424C802.392 113.765 801.856 113.231 801.196 113.231H786.956V102.277C786.956 101.646 787.472 101.131 788.105 101.131L798.621 101.12V105.001C798.621 106.135 799.542 107.055 800.678 107.055L804.486 107.044L804.529 124.184C804.529 124.817 804.014 125.332 803.381 125.332ZM792.484 118.576C791.648 118.285 791.103 117.823 791.103 117.094C791.103 116.236 791.819 115.581 793.006 115.581C793.573 115.581 793.991 115.701 794.289 115.834L794.035 116.751C793.834 116.654 793.476 116.512 792.983 116.512C792.491 116.512 792.252 116.736 792.252 116.996C792.252 117.316 792.536 117.458 793.185 117.704C794.073 118.032 794.49 118.494 794.49 119.202C794.49 120.043 793.841 120.758 792.461 120.758C791.887 120.758 791.32 120.609 791.036 120.452L791.268 119.514C791.574 119.671 792.044 119.827 792.528 119.827C793.05 119.827 793.327 119.611 793.327 119.283C793.327 118.97 793.088 118.791 792.484 118.576ZM796.514 118.576C795.679 118.285 795.134 117.823 795.134 117.094C795.134 116.236 795.85 115.581 797.036 115.581C797.604 115.581 798.021 115.701 798.32 115.834L798.066 116.751C797.865 116.654 797.507 116.512 797.014 116.512C796.522 116.512 796.283 116.736 796.283 116.996C796.283 117.316 796.566 117.458 797.215 117.704C798.103 118.032 798.521 118.494 798.521 119.202C798.521 120.043 797.872 120.758 796.492 120.758C795.917 120.758 795.35 120.609 795.067 120.452L795.298 119.514C795.604 119.671 796.074 119.827 796.559 119.827C797.081 119.827 797.357 119.611 797.357 119.283C797.357 118.97 797.118 118.791 796.514 118.576Z" fill="#2A7AE4"/>
</g>
<path d="M784.496 148.24C784.496 147.547 784.619 146.864 784.864 146.192C785.12 145.509 785.488 144.901 785.968 144.368C786.448 143.835 787.035 143.403 787.728 143.072C788.421 142.741 789.211 142.576 790.096 142.576C791.141 142.576 792.043 142.805 792.8 143.264C793.568 143.723 794.139 144.32 794.512 145.056L792.816 146.224C792.667 145.904 792.485 145.637 792.272 145.424C792.059 145.2 791.829 145.024 791.584 144.896C791.339 144.768 791.083 144.677 790.816 144.624C790.549 144.56 790.288 144.528 790.032 144.528C789.477 144.528 788.992 144.64 788.576 144.864C788.171 145.088 787.829 145.381 787.552 145.744C787.285 146.096 787.083 146.501 786.944 146.96C786.805 147.408 786.736 147.856 786.736 148.304C786.736 148.805 786.816 149.291 786.976 149.76C787.136 150.219 787.36 150.624 787.648 150.976C787.947 151.328 788.299 151.611 788.704 151.824C789.12 152.037 789.573 152.144 790.064 152.144C790.32 152.144 790.587 152.112 790.864 152.048C791.141 151.984 791.403 151.883 791.648 151.744C791.904 151.605 792.139 151.429 792.352 151.216C792.565 150.992 792.736 150.725 792.864 150.416L794.672 151.456C794.491 151.883 794.229 152.261 793.888 152.592C793.557 152.912 793.179 153.184 792.752 153.408C792.336 153.632 791.888 153.803 791.408 153.92C790.928 154.037 790.459 154.096 790 154.096C789.189 154.096 788.448 153.925 787.776 153.584C787.104 153.243 786.523 152.8 786.032 152.256C785.552 151.701 785.173 151.077 784.896 150.384C784.629 149.68 784.496 148.965 784.496 148.24ZM802.921 145.616C802.846 145.541 802.707 145.44 802.505 145.312C802.313 145.184 802.073 145.061 801.785 144.944C801.507 144.816 801.203 144.709 800.873 144.624C800.542 144.539 800.206 144.496 799.865 144.496C799.257 144.496 798.803 144.608 798.505 144.832C798.206 145.056 798.057 145.371 798.057 145.776C798.057 146.011 798.11 146.208 798.217 146.368C798.334 146.517 798.499 146.651 798.713 146.768C798.926 146.885 799.193 146.992 799.513 147.088C799.843 147.184 800.222 147.285 800.649 147.392C801.203 147.541 801.705 147.701 802.153 147.872C802.611 148.043 802.995 148.256 803.305 148.512C803.625 148.768 803.87 149.077 804.041 149.44C804.211 149.792 804.297 150.229 804.297 150.752C804.297 151.36 804.179 151.883 803.945 152.32C803.721 152.747 803.411 153.093 803.017 153.36C802.633 153.627 802.185 153.824 801.673 153.952C801.171 154.069 800.643 154.128 800.089 154.128C799.235 154.128 798.393 154 797.561 153.744C796.729 153.488 795.982 153.125 795.321 152.656L796.297 150.752C796.393 150.848 796.563 150.976 796.809 151.136C797.065 151.285 797.363 151.44 797.705 151.6C798.046 151.749 798.425 151.877 798.841 151.984C799.257 152.091 799.683 152.144 800.121 152.144C801.337 152.144 801.945 151.755 801.945 150.976C801.945 150.731 801.875 150.523 801.737 150.352C801.598 150.181 801.401 150.032 801.145 149.904C800.889 149.776 800.579 149.659 800.217 149.552C799.854 149.445 799.449 149.328 799.001 149.2C798.457 149.051 797.982 148.891 797.577 148.72C797.182 148.539 796.851 148.331 796.585 148.096C796.318 147.851 796.115 147.573 795.977 147.264C795.849 146.944 795.785 146.565 795.785 146.128C795.785 145.552 795.891 145.04 796.105 144.592C796.318 144.144 796.611 143.771 796.985 143.472C797.369 143.173 797.811 142.949 798.313 142.8C798.814 142.64 799.353 142.56 799.929 142.56C800.729 142.56 801.465 142.688 802.137 142.944C802.809 143.189 803.395 143.483 803.897 143.824L802.921 145.616ZM812.733 145.616C812.659 145.541 812.52 145.44 812.317 145.312C812.125 145.184 811.885 145.061 811.597 144.944C811.32 144.816 811.016 144.709 810.685 144.624C810.355 144.539 810.019 144.496 809.677 144.496C809.069 144.496 808.616 144.608 808.317 144.832C808.019 145.056 807.869 145.371 807.869 145.776C807.869 146.011 807.923 146.208 808.029 146.368C808.147 146.517 808.312 146.651 808.525 146.768C808.739 146.885 809.005 146.992 809.325 147.088C809.656 147.184 810.035 147.285 810.461 147.392C811.016 147.541 811.517 147.701 811.965 147.872C812.424 148.043 812.808 148.256 813.117 148.512C813.437 148.768 813.683 149.077 813.853 149.44C814.024 149.792 814.109 150.229 814.109 150.752C814.109 151.36 813.992 151.883 813.757 152.32C813.533 152.747 813.224 153.093 812.829 153.36C812.445 153.627 811.997 153.824 811.485 153.952C810.984 154.069 810.456 154.128 809.901 154.128C809.048 154.128 808.205 154 807.373 153.744C806.541 153.488 805.795 153.125 805.133 152.656L806.109 150.752C806.205 150.848 806.376 150.976 806.621 151.136C806.877 151.285 807.176 151.44 807.517 151.6C807.859 151.749 808.237 151.877 808.653 151.984C809.069 152.091 809.496 152.144 809.933 152.144C811.149 152.144 811.757 151.755 811.757 150.976C811.757 150.731 811.688 150.523 811.549 150.352C811.411 150.181 811.213 150.032 810.957 149.904C810.701 149.776 810.392 149.659 810.029 149.552C809.667 149.445 809.261 149.328 808.813 149.2C808.269 149.051 807.795 148.891 807.389 148.72C806.995 148.539 806.664 148.331 806.397 148.096C806.131 147.851 805.928 147.573 805.789 147.264C805.661 146.944 805.597 146.565 805.597 146.128C805.597 145.552 805.704 145.04 805.917 144.592C806.131 144.144 806.424 143.771 806.797 143.472C807.181 143.173 807.624 142.949 808.125 142.8C808.627 142.64 809.165 142.56 809.741 142.56C810.541 142.56 811.277 142.688 811.949 142.944C812.621 143.189 813.208 143.483 813.709 143.824L812.733 145.616Z" fill="#464646"/>
<defs>
<clipPath id="clip0_160_124">
<rect width="22" height="35.5385" fill="white" transform="translate(784 95.4615)"/>
</clipPath>
</defs>
</svg>
